# xmcd CD database file
#
# Track frame offsets:
#	183
#	14270
#	29068
#	44393
#	72788
#	87553
#	104163
#	121853
#	138618
#	153163
#	166760
#	185800
#	203278
#	218315
#	250528
#
# Disc length: 3505 seconds
#
# Revision: 2
# Processed by: cddbd v1.4b41PL1 Copyright (c) Steve Scherf et al.
# Submitted via: Feurio! 1.50.2ß - http://www.feurio.com
#
DISCID=c70daf0f
DTITLE=Hammond, West and Friends - The Very Best Of
DYEAR=1900
DGENRE=
TTITLE0=Itsy Bitsy Teenie Weeny
TTITLE1=Cryin' In The Rain
TTITLE2=Give A Little Love
TTITLE3=The Albert West Medley
TTITLE4=I'm Leaving It Up To You
TTITLE5=Ginny Come Lately
TTITLE6=When I Need You
TTITLE7=It Never Rains In Southern California
TTITLE8=To Know You Is To Love You
TTITLE9=Is This The Way To Amarillo
TTITLE10=The Air That I Breathe
TTITLE11=Members Only
TTITLE12=Cha La La I Need You
TTITLE13=The Albert Hammond Medley
TTITLE14=Walking Back To Happyness
EXTD=
EXTT0=
EXTT1=
EXTT2=
EXTT3=
EXTT4=
EXTT5=
EXTT6=
EXTT7=
EXTT8=
EXTT9=
EXTT10=
EXTT11=
EXTT12=
EXTT13=
EXTT14=
PLAYORDER=
